<svg xmlns="http://www.w3.org/2000/svg" version="1.1" xmlns:xlink="http://www.w3.org/1999/xlink" xmlns:svgjs="http://svgjs.dev/svgjs" width="2000" height="1500" viewBox="0 0 2000 1500"><rect width="2000" height="1500" fill="#9323ba"></rect><g transform="matrix(0.75,0,0,0.75,251.39069805068902,54.18990764361274)"><svg viewBox="0 0 266 247" data-background-color="#9323ba" preserveAspectRatio="xMidYMid meet" height="1857" width="2000" xmlns="http://www.w3.org/2000/svg" xmlns:xlink="http://www.w3.org/1999/xlink"><g id="tight-bounds" transform="matrix(1,0,0,1,-0.24636192663024303,-0.09997365579206985)"><svg viewBox="0 0 266.4929790476191 247.2" height="247.2" width="266.4929790476191"><g><svg viewBox="0 0 266.4929790476191 247.2" height="247.2" width="266.4929790476191"><g><svg viewBox="0 0 266.4929790476191 247.2" height="247.2" width="266.4929790476191"><g id="textblocktransform"><svg viewBox="0 0 266.4929790476191 247.2" height="247.2" width="266.4929790476191" id="textblock"><g><svg viewBox="0 0 266.4929790476191 247.2" height="247.2" width="266.4929790476191"><path d="M265.869 53.02C264.616 27.36 261.046 20.227 261.046 20.227 250.083-6.202 236.402-0.506 224.112 3.292 202.413 3.446 180.801 9.091 159.152 12.119 113.712 12.581 67.883 4.986 22.668 23.717 18.421 29.464-4.406 24.846 0.755 56.304 2.109 69.39 7.045 83.913 6.894 95.922 7.571 98.026 8.511 93.202 8.911 96.23 10.315 104.39 12.607 100.541 14.487 105.365 11.868 118.246 13.747 128.971 15.539 140.21 12.382 143.135 8.335 141.749 6.519 151.449 6.331 158.479 5.316 157.145 4.201 156.837 3.386 156.632 1.745 157.402 2.021 159.608 2.96 167.152-1.074 171.514 1.457 178.904-0.284 186.91 2.66 193.838 2.259 202.511 2.209 204.255 2.484 205.744 2.923 206.154 4.865 208.361 2.033 212.672 2.334 217.342 22.254 249.262 43.866 227.195 64.274 241.872 69.574 231.608 65.59 245.516 67.707 243.36 69.361 240.846 70.564 251.263 72.43 245.362 72.719 243.668 72.28 239.665 73.307 240.435 73.846 240.846 74.322 240.743 74.397 238.382 74.51 234.841 73.52 237.048 73.257 235.201 76.101 225.861 75.4 248.081 78.068 247.158 77.943 244.438 77.166 240.538 78.757 241.051 80.336 237.151 80.386 233.918 81.789 242.693 81.839 244.592 82.09 245.926 82.491 246.85 86.876 237.305 91.236 250.237 95.834 245.926 98.652 241.205 101.359 248.492 104.215 246.696 105.217 245.259 106.232 242.693 107.197 247.004 119.011 247.928 131.602 244.079 142.803 247.158 172.733 241.41 204.718 249.518 236.277 241.923 243.719 238.998 251.449 234.841 258.703 231.506 258.703 231.506 264.579 222.371 264.579 181.316S265.831 145.393 266.019 112.703C266.207 80.013 267.084 78.679 265.831 53.02Z" opacity="1" fill="#f7f7ee" data-fill-palette-color="tertiary"></path><g transform="matrix(1,0,0,1,55.76832000000002,26.230666666666668)"><svg width="154.95633904761905" viewBox="1.05 -35 27.849999999999998 35" height="194.73866666666666" data-palette-color="#9323ba"><path d="M1.05-33.9L1.05-35 27.05-35 27.55-25.1 26.65-25.1Q24.55-30.15 22.25-32.02 19.95-33.9 15.5-33.9L15.5-33.9 13.75-33.9 13.75-18.45 15.45-18.45Q17.8-18.45 19.4-20.23 21-22 21.65-25L21.65-25 22.4-25 22.4-10.2 21.55-10.2Q20.65-13.95 19.13-15.55 17.6-17.15 14.95-17.15L14.95-17.15 13.75-17.15 13.75-1.1 15.65-1.1Q20.25-1.1 23.48-3.85 26.7-6.6 27.9-10.9L27.9-10.9 28.9-10.9 28.5 0 1.05 0 1.05-1.1 4-1.1 4-33.9 1.05-33.9Z" opacity="1" transform="matrix(1,0,0,1,0,0)" fill="#9323ba" class="wordmark-text-0" data-fill-palette-color="quaternary" id="text-0"></path></svg></g></svg></g></svg></g></svg></g><g></g></svg></g><defs></defs></svg><rect width="266.4929790476191" height="247.2" fill="none" stroke="none" visibility="hidden"></rect></g></svg></g></svg>